<svg width="37" height="37" viewBox="0 0 37 37" fill="none" xmlns="http://www.w3.org/2000/svg">
<path fill-rule="evenodd" clip-rule="evenodd" d="M0 18.2292C0 8.16148 8.16148 0 18.2292 0C28.2969 0 36.4583 8.16148 36.4583 18.2292C36.4583 28.2969 28.2969 36.4583 18.2292 36.4583C8.16148 36.4583 0 28.2969 0 18.2292ZM15.833 12.6224C13.888 14.2225 12.5887 16.473 12.1754 18.9574L10.8073 27.1826C10.4914 29.0815 12.6994 30.3563 14.186 29.1333L20.6251 23.8359C22.57 22.2358 23.8694 19.9852 24.2826 17.5008L25.6508 9.27564C25.9667 7.37673 23.7587 6.10195 22.2721 7.32495L15.833 12.6224Z" fill="white"/>
<path d="M15.1042 18.2292C15.1042 16.5033 16.5033 15.1042 18.2292 15.1042C19.9551 15.1042 21.3542 16.5033 21.3542 18.2292C21.3542 19.9551 19.9551 21.3542 18.2292 21.3542C16.5033 21.3542 15.1042 19.9551 15.1042 18.2292Z" fill="white"/>
</svg>
